<?xml version="1.0" encoding="UTF-8"?>
<svg id="Layer_2" data-name="Layer 2" xmlns="http://www.w3.org/2000/svg" xmlns:xlink="http://www.w3.org/1999/xlink" viewBox="0 0 337.01 100.43">
  <defs>
    <style>
      .cls-1 {
        fill: url(#linear-gradient-4);
        mix-blend-mode: multiply;
      }

      .cls-1, .cls-2, .cls-3, .cls-4, .cls-5, .cls-6 {
        stroke-width: 0px;
      }

      .cls-7 {
        mask: url(#mask);
      }

      .cls-2 {
        fill: url(#linear-gradient);
      }

      .cls-8 {
        filter: url(#luminosity-noclip);
      }

      .cls-3 {
        fill: url(#linear-gradient-2);
      }

      .cls-4 {
        fill: url(#linear-gradient-3);
      }

      .cls-5 {
        fill: url(#linear-gradient-5);
      }

      .cls-9 {
        mask: url(#mask-1);
      }

      .cls-6 {
        fill: #ffa200;
      }
    </style>
    <linearGradient id="linear-gradient" x1="41.11" y1="13.1" x2="57.31" y2="68.45" gradientUnits="userSpaceOnUse">
      <stop offset=".53" stop-color="#ffa200"/>
      <stop offset="1" stop-color="#f17923"/>
    </linearGradient>
    <linearGradient id="linear-gradient-2" x1="30.77" y1="51.05" x2="54.49" y2="62.44" xlink:href="#linear-gradient"/>
    <linearGradient id="linear-gradient-3" x1="70.11" y1="34.24" x2="41.08" y2="24.94" xlink:href="#linear-gradient"/>
    <filter id="luminosity-noclip" x="26.22" y="19" width="22.51" height="22.11" color-interpolation-filters="sRGB" filterUnits="userSpaceOnUse">
      <feFlood flood-color="#fff" result="bg"/>
      <feBlend in="SourceGraphic" in2="bg"/>
    </filter>
    <filter id="luminosity-noclip-2" x="26.22" y="-7342.35" width="22.51" height="32766" color-interpolation-filters="sRGB" filterUnits="userSpaceOnUse">
      <feFlood flood-color="#fff" result="bg"/>
      <feBlend in="SourceGraphic" in2="bg"/>
    </filter>
    <mask id="mask-1" x="26.22" y="-7342.35" width="22.51" height="32766" maskUnits="userSpaceOnUse"/>
    <linearGradient id="linear-gradient-4" x1="33.06" y1="24.94" x2="37.79" y2="30.04" gradientUnits="userSpaceOnUse">
      <stop offset="0" stop-color="#fff"/>
      <stop offset=".85" stop-color="#000"/>
    </linearGradient>
    <mask id="mask" x="26.22" y="19" width="22.51" height="22.11" maskUnits="userSpaceOnUse">
      <g class="cls-8">
        <g class="cls-9">
          <path class="cls-1" d="M48.73,19c-4.41.31-9.48,1.81-12.81,3.71-7.74,4.42-11.28,11.32-9.04,18.39l21.85-22.11Z"/>
        </g>
      </g>
    </mask>
    <linearGradient id="linear-gradient-5" x1="33.06" y1="24.94" x2="37.79" y2="30.04" gradientUnits="userSpaceOnUse">
      <stop offset="0" stop-color="#fff"/>
      <stop offset=".85" stop-color="#fff"/>
    </linearGradient>
  </defs>
  <g id="Layer_1-2" data-name="Layer 1">
    <g>
      <path class="cls-2" d="M37.66,20.6c-.66.28-1.32.57-1.97.9-8.76,4.41-12.83,12.4-10.05,20.06,3.56,9.82,14.37,8.94,22.93,8.25,5.59-.45,10.07-.74,11,1.74,1.6,4.26-3.98,10.54-9.24,12.56-4.43,1.7-9.3,2.1-14.03,1.84,2.46.59,6.77,1.08,8.71,1.03,1.68-.04,3.82-.11,6.23-.49l2.38,8.13c2.38-1.79,4.68-3.68,6.9-5.65l-1.19-4.98c2.11-1.03,4.26-2.42,6.35-4.32,3.1-2.82,5.42-7.7,4.61-12.01-1.82-9.63-12.51-8.93-21.23-8.36-5.83.38-10.91.72-11.81-2.17-.11-.36-.15-.76-.1-1.18-.19-1.16.13-2.56.44-3.54.55-1.74,1.63-3.33,2.86-4.67,2.65-2.86,5.97-4.97,9.62-6.31,5.49-2.02,11.23-2.22,16.89-1.43v-.07s-.38-.13-.38-.13c-3.17-1.08-6.62-1.73-10.17-1.98v.02c-1.47-.1-4.54-.28-8.35.14l-1.85-7.58c-4.04-.72-8.1-1.31-12.09-1.75l3.56,11.96Z"/>
      <path class="cls-3" d="M49.93,62.84c2.91-.9,7.69-4.39,8.97-8.63-1.07,1.2-3.29,2.44-6.33,3.26-4.63,1.25-10.66,1.15-16.23-.3l-.35-.09-1.08,6.31c4.98.7,10.18.94,15.01-.55Z"/>
      <path class="cls-4" d="M50.18,23.17c-3.58,1.13-7.17,3.11-9.66,5.96-1.16,1.32-2.14,2.79-2.59,4.51-.05.21-.1.42-.13.63,1.01-1.49,3.24-3.02,7.29-4.12,5.38-1.45,12.76-1.17,19.57.7l.37.1,1.44-8.27c-5.4-1.09-10.91-1.21-16.29.49Z"/>
      <path class="cls-6" d="M95.18,26.38c-8.12,30.84-34.47,59.13-62.01,73.42-2.46,1.27-5.48.57-7.16-1.63-4.7-6.13-9.11-13.4-12.91-21.52,0,0,15.4,14.14,26.14,8.65,2.54-1.3,5.05-2.76,7.53-4.34,19.14-12.1,36.37-31.49,42.59-52.59.8-2.7-.4-5.6-2.91-6.88-.93-.47-1.9-.93-2.87-1.38l-2.34,3.36c-.37.53-1.17.5-1.5-.07l-7.47-13.01,15.21,1.92c.66.08,1,.84.62,1.39l-2.05,2.94c2.22,1.07,4.35,2.18,6.39,3.33,2.25,1.27,3.41,3.9,2.76,6.4Z"/>
      <path class="cls-6" d="M17.63,53.97c-4.02-13.08-6.15-27.72-5.64-42.17.11-3.12,2.72-5.54,5.84-5.54,15.33.02,35.56,3.01,53.07,8.85l-1.26-2.73c-.86-1.86-2.47-3.26-4.43-3.88C46.04,2.49,24.5-.74,6.23.14,3.41.28,1.08,2.41.76,5.21c-2.28,20.14.73,40.03,6.67,57.4l-3.93,3.33c-.57.48-.44,1.38.23,1.69l22.07,10.04-3.37-25.73c-.1-.79-1.04-1.16-1.65-.64l-3.16,2.68Z"/>
      <g class="cls-7">
        <path class="cls-5" d="M48.73,19c-4.41.31-9.48,1.81-12.81,3.71-7.74,4.42-11.28,11.32-9.04,18.39l21.85-22.11Z"/>
      </g>
      <g>
        <path class="cls-6" d="M128.53,40.42c4.17,0,5.83-1.42,5.83-3.77,0-2.23-1.22-3-3.85-3.32l-6.6-.73c-5.06-.53-7.66-2.88-7.66-7.21,0-4.82,3.77-8.27,11.83-8.27s11.75,3.36,12.03,8.59h-5.92c-.28-2.92-2.19-4.34-6.12-4.34s-5.75,1.42-5.75,3.65c0,1.58.85,2.92,3.53,3.24l6.12.65c5.92.61,8.47,2.51,8.47,7.21,0,5.19-3.32,8.55-12.03,8.55s-12.2-4.13-12.52-9.4h5.83c.24,2.96,1.9,5.15,6.81,5.15Z"/>
        <path class="cls-6" d="M149.36,44.79c-4.05,0-6.93-2.11-6.97-5.79-.04-3.28,1.54-5.39,7.01-6.28l4.94-.85c2.07-.32,2.71-.81,2.71-2.07,0-1.54-.93-2.51-4.01-2.51-3.28,0-4.54,1.34-4.54,3.36h-5.71c0-4.58,3.85-7.29,10.17-7.29s9.36,2.59,9.48,6.93l.28,13.98h-5.11l-.12-2.84h-.61c-1.26,1.99-3.69,3.36-7.54,3.36ZM151.43,41.02c3.48-.12,5.71-2.51,5.71-5.75v-.85l-5.59,1.13c-2.31.49-3.44,1.42-3.28,3.16.12,1.78,1.42,2.39,3.16,2.31Z"/>
        <path class="cls-6" d="M170.59,39.77h3.4v4.5h-2.31c-5.31,0-7.01-2.27-7.01-6.56v-20.22h5.92v22.29Z"/>
        <path class="cls-6" d="M182.91,44.79c-4.05,0-6.93-2.11-6.97-5.79-.04-3.28,1.54-5.39,7.01-6.28l4.94-.85c2.07-.32,2.71-.81,2.71-2.07,0-1.54-.93-2.51-4.01-2.51-3.28,0-4.54,1.34-4.54,3.36h-5.71c0-4.58,3.85-7.29,10.17-7.29s9.36,2.59,9.48,6.93l.28,13.98h-5.11l-.12-2.84h-.61c-1.26,1.99-3.69,3.36-7.54,3.36ZM184.98,41.02c3.48-.12,5.71-2.51,5.71-5.75v-.85l-5.59,1.13c-2.31.49-3.44,1.42-3.28,3.16.12,1.78,1.42,2.39,3.16,2.31Z"/>
        <path class="cls-6" d="M208.48,41.1c2.67,0,4.01-.85,4.01-2.51,0-1.38-.69-2.23-3.4-2.63l-4.42-.69c-3.97-.61-6.12-2.11-6.16-5.83-.04-4.46,3.93-6.24,9.4-6.24,5.75,0,9.48,2.19,9.85,6.69h-5.31c-.2-1.7-1.5-3-4.5-3-2.67,0-3.81,1.01-3.81,2.47,0,1.17.61,2.03,2.71,2.31l4.34.53c4.74.61,7.01,2.19,6.89,6.16-.08,3.89-2.67,6.32-9.68,6.32-7.5,0-10.01-3.32-10.17-7.25h5.31c.2,2.03,1.34,3.69,4.94,3.69Z"/>
        <path class="cls-6" d="M227,44.79c-4.05,0-6.93-2.11-6.97-5.79-.04-3.28,1.54-5.39,7.01-6.28l4.94-.85c2.07-.32,2.71-.81,2.71-2.07,0-1.54-.93-2.51-4.01-2.51-3.28,0-4.54,1.34-4.54,3.36h-5.71c0-4.58,3.85-7.29,10.17-7.29s9.36,2.59,9.48,6.93l.28,13.98h-5.11l-.12-2.84h-.61c-1.26,1.99-3.69,3.36-7.54,3.36ZM229.06,41.02c3.48-.12,5.71-2.51,5.71-5.75v-.85l-5.59,1.13c-2.31.49-3.44,1.42-3.28,3.16.12,1.78,1.42,2.39,3.16,2.31Z"/>
        <path class="cls-6" d="M254.55,23.6h1.38v5.43h-2.07c-3.65,0-5.71,2.07-5.71,6.56v8.67h-5.83v-20.54h5.67v3.12h.53c1.13-2.07,3.08-3.24,6.04-3.24Z"/>
        <path class="cls-6" d="M278.3,36.4h-14.47l-3.24,7.86h-1.82l11.06-26.74h2.51l11.06,26.74h-1.86l-3.24-7.86ZM277.73,34.95l-6.36-15.24h-.65l-6.32,15.24h13.33Z"/>
        <path class="cls-6" d="M287.94,42.89h3.52v1.38h-2.8c-1.9,0-2.43-.77-2.43-2.35v-24.39h1.7v25.37Z"/>
        <path class="cls-6" d="M303.95,23.32c3.81,0,6.6,1.42,8.06,4.17h.28v-3.77h1.7v26.24c0,5.15-2.67,8.27-9.56,8.27-6,0-9.08-2.67-9.52-6.89h1.62c.2,2.63,2.23,5.47,7.82,5.47s7.94-2.07,7.94-6.73v-9.39h-.41c-1.5,2.63-4.21,3.97-7.94,3.97-6.65,0-9.64-3.97-9.64-10.62s3.4-10.74,9.64-10.74ZM304.31,43.25c4.58,0,7.98-2.39,7.98-9.6,0-6.6-3.4-8.91-7.98-8.91-5.06,0-8.27,3.12-8.27,9.32s2.8,9.2,8.27,9.2Z"/>
        <path class="cls-6" d="M316.02,34.01c0-6.32,3.85-10.66,10.49-10.66s10.49,4.38,10.49,10.66-3.85,10.66-10.49,10.66-10.49-4.25-10.49-10.66ZM326.51,43.25c5.19,0,8.71-2.92,8.71-9.24s-3.53-9.24-8.71-9.24-8.71,2.92-8.71,9.24,3.52,9.24,8.71,9.24Z"/>
      </g>
      <g>
        <path class="cls-6" d="M121.28,57.14h-3.34l-.68,1.72h-.97l2.61-6.63h1.43l2.62,6.63h-.99l-.68-1.72ZM121.01,56.4l-1.32-3.31h-.16l-1.32,3.3h2.79Z"/>
        <path class="cls-6" d="M125.92,52.22v4.07c0,1.35.59,1.95,1.99,1.95s1.98-.6,1.98-1.95v-4.07h.97v4.16c0,1.64-.88,2.63-2.96,2.63s-2.96-.99-2.96-2.63v-4.16h.96Z"/>
        <path class="cls-6" d="M133.27,52.97v-.75h5.97v.75h-2.48v5.88h-.97v-5.88h-2.51Z"/>
        <path class="cls-6" d="M141.15,55.53c0-1.89,1.11-3.41,3.55-3.41s3.57,1.53,3.57,3.41-1.12,3.43-3.57,3.43-3.55-1.48-3.55-3.43ZM144.7,58.19c1.71,0,2.53-1.03,2.53-2.66s-.82-2.64-2.53-2.64-2.52,1.04-2.52,2.64.83,2.66,2.52,2.66Z"/>
        <path class="cls-6" d="M150.67,52.22h1.78l2.14,5.68,2.1-5.68h1.74v6.63h-.97v-5.63h-.15l-2.13,5.63h-1.2l-2.19-5.66h-.14v5.66h-.97v-6.63Z"/>
        <path class="cls-6" d="M165.83,57.14h-3.34l-.68,1.72h-.97l2.61-6.63h1.43l2.62,6.63h-.99l-.68-1.72ZM165.56,56.4l-1.32-3.31h-.16l-1.32,3.3h2.79Z"/>
        <path class="cls-6" d="M168.46,52.97v-.75h5.97v.75h-2.48v5.88h-.98v-5.88h-2.51Z"/>
        <path class="cls-6" d="M182.04,58.1v.75h-5.2v-6.63h5.16v.75h-4.18v2.09h3.57v.75h-3.57v2.28h4.22Z"/>
        <path class="cls-6" d="M192.72,55.61l2.07-3.39h1.09l-2.67,4.24v2.39h-.96v-2.39l-2.66-4.24h1.1l2.05,3.39Z"/>
        <path class="cls-6" d="M197.6,55.53c0-1.89,1.11-3.41,3.55-3.41s3.57,1.53,3.57,3.41-1.12,3.43-3.57,3.43-3.55-1.48-3.55-3.43ZM201.15,58.19c1.71,0,2.53-1.03,2.53-2.66s-.82-2.64-2.53-2.64-2.52,1.04-2.52,2.64.83,2.66,2.52,2.66Z"/>
        <path class="cls-6" d="M208.09,52.22v4.07c0,1.35.59,1.95,1.99,1.95s1.98-.6,1.98-1.95v-4.07h.97v4.16c0,1.64-.88,2.63-2.96,2.63s-2.96-.99-2.96-2.63v-4.16h.96Z"/>
        <path class="cls-6" d="M215.44,52.22h3.35c1.47,0,2.1.69,2.1,1.74,0,.8-.47,1.42-1.17,1.64v.11c.53.15,1.08.53.99,1.45-.07.65-.05,1.15.03,1.7h-.97c-.07-.47-.09-1.03-.02-1.62.09-.83-.48-1.24-1.38-1.24h-1.95v2.85h-.97v-6.63ZM218.5,55.3c.96,0,1.37-.44,1.37-1.2,0-.82-.4-1.14-1.3-1.14h-2.16v2.33h2.09Z"/>
        <path class="cls-6" d="M231.47,58.24c1.28,0,1.81-.41,1.81-1.18,0-.71-.34-.95-1.22-1.07l-1.67-.21c-1.25-.16-1.79-.73-1.79-1.73,0-1.1.87-1.94,2.71-1.94s2.78.76,2.83,2.08h-.96c-.05-.85-.6-1.38-1.87-1.38s-1.73.47-1.73,1.2c0,.48.2.91,1.08,1.03l1.66.21c1.37.16,1.93.6,1.93,1.7,0,1.25-.79,2-2.79,2-2.15,0-2.96-1.01-3.04-2.31h.94c.06.86.53,1.6,2.1,1.6Z"/>
        <path class="cls-6" d="M237.59,52.22v4.07c0,1.35.59,1.95,1.99,1.95s1.98-.6,1.98-1.95v-4.07h.97v4.16c0,1.64-.88,2.63-2.96,2.63s-2.96-.99-2.96-2.63v-4.16h.96Z"/>
        <path class="cls-6" d="M248.42,58.96c-2.38,0-3.49-1.47-3.49-3.45s1.12-3.39,3.5-3.39c2.01,0,3.06.91,3.32,2.44h-.99c-.23-1.16-1.01-1.68-2.32-1.68-1.62,0-2.48.9-2.48,2.62s.84,2.68,2.46,2.68c1.38,0,2.18-.62,2.37-1.85h1c-.22,1.62-1.27,2.61-3.37,2.61Z"/>
        <path class="cls-6" d="M257.68,58.96c-2.38,0-3.49-1.47-3.49-3.45s1.12-3.39,3.5-3.39c2.01,0,3.06.91,3.32,2.44h-.99c-.23-1.16-1.01-1.68-2.32-1.68-1.62,0-2.48.9-2.48,2.62s.84,2.68,2.46,2.68c1.38,0,2.18-.62,2.37-1.85h1c-.22,1.62-1.27,2.61-3.37,2.61Z"/>
        <path class="cls-6" d="M268.65,58.1v.75h-5.2v-6.63h5.16v.75h-4.18v2.09h3.57v.75h-3.57v2.28h4.22Z"/>
        <path class="cls-6" d="M274.04,58.24c1.28,0,1.81-.41,1.81-1.18,0-.71-.34-.95-1.22-1.07l-1.67-.21c-1.25-.16-1.79-.73-1.79-1.73,0-1.1.87-1.94,2.71-1.94s2.78.76,2.83,2.08h-.96c-.05-.85-.6-1.38-1.87-1.38s-1.73.47-1.73,1.2c0,.48.2.91,1.08,1.03l1.66.21c1.37.16,1.93.6,1.93,1.7,0,1.25-.79,2-2.79,2-2.15,0-2.96-1.01-3.04-2.31h.94c.06.86.53,1.6,2.1,1.6Z"/>
        <path class="cls-6" d="M282.28,58.24c1.28,0,1.81-.41,1.81-1.18,0-.71-.34-.95-1.22-1.07l-1.67-.21c-1.25-.16-1.79-.73-1.79-1.73,0-1.1.87-1.94,2.71-1.94s2.78.76,2.83,2.08h-.96c-.05-.85-.6-1.38-1.87-1.38s-1.73.47-1.73,1.2c0,.48.2.91,1.08,1.03l1.66.21c1.37.16,1.93.6,1.93,1.7,0,1.25-.79,2-2.79,2-2.15,0-2.96-1.01-3.04-2.31h.94c.06.86.53,1.6,2.1,1.6Z"/>
        <path class="cls-6" d="M287.91,57.75h.3c.25,0,.44.19.44.44v.22c0,.25-.19.44-.44.44h-.3c-.25,0-.44-.19-.44-.44v-.22c0-.25.19-.44.44-.44Z"/>
      </g>
    </g>
  </g>
</svg>