<svg width="29" height="28" viewBox="0 0 29 28" fill="none" xmlns="http://www.w3.org/2000/svg">
<path d="M28.3523 0.391307C28.3409 0.336031 28.3139 0.285153 28.2746 0.244639C28.2353 0.204124 28.1853 0.175651 28.1304 0.162557C24.4698 -0.732443 16.0117 2.45693 11.4292 7.03756C10.6118 7.84828 9.86672 8.72869 9.20229 9.66881C7.78916 9.54381 6.37604 9.64818 5.17166 10.1732C1.77354 11.6688 0.784161 15.5713 0.508536 17.2501C0.492902 17.3419 0.4988 17.4362 0.525764 17.5254C0.552728 17.6146 0.600024 17.6964 0.663932 17.7642C0.72784 17.8321 0.806617 17.8842 0.894068 17.9164C0.981518 17.9487 1.07526 17.9602 1.16791 17.9501L6.62479 17.3482C6.62867 17.7596 6.6535 18.1705 6.69916 18.5794C6.72662 18.8634 6.85267 19.1287 7.05541 19.3294L9.16854 21.4376C9.36944 21.64 9.63469 21.766 9.91854 21.7938C10.3251 21.8392 10.7338 21.8641 11.1429 21.8682L10.5442 27.3182C10.5342 27.4108 10.5458 27.5045 10.5781 27.5919C10.6104 27.6793 10.6625 27.758 10.7303 27.8219C10.7981 27.8857 10.8798 27.933 10.9689 27.9601C11.0581 27.9871 11.1523 27.9931 11.2442 27.9776C12.9198 27.7088 16.8292 26.7194 18.316 23.3213C18.841 22.1169 18.9485 20.7107 18.8273 19.3044C19.7697 18.6399 20.6524 17.8946 21.4654 17.0769C26.0623 12.5032 29.2335 4.23381 28.3523 0.391307ZM16.8792 11.6207C16.4594 11.2012 16.1735 10.6667 16.0576 10.0847C15.9417 9.50266 16.001 8.89936 16.228 8.35107C16.455 7.80278 16.8395 7.33413 17.3329 7.0044C17.8263 6.67466 18.4064 6.49867 18.9998 6.49867C19.5932 6.49867 20.1733 6.67466 20.6667 7.0044C21.1601 7.33413 21.5446 7.80278 21.7716 8.35107C21.9986 8.89936 22.0579 9.50266 21.942 10.0847C21.8261 10.6667 21.5402 11.2012 21.1204 11.6207C20.8421 11.8994 20.5115 12.1206 20.1476 12.2714C19.7838 12.4223 19.3937 12.5 18.9998 12.5C18.6059 12.5 18.2158 12.4223 17.8519 12.2714C17.4881 12.1206 17.1575 11.8994 16.8792 11.6207Z" />
</svg>
