<svg width="24" height="24" viewBox="0 0 24 24" fill="none" xmlns="http://www.w3.org/2000/svg">
<path d="M22.7479 16.3543C22.8365 16.4175 22.9101 16.4992 22.9638 16.5938C23.0175 16.6884 23.0499 16.7936 23.0587 16.9019C23.0664 17.0073 23.052 17.1131 23.0163 17.2125C22.9806 17.3119 22.9245 17.4027 22.8515 17.4791L17.4791 22.8515C17.4027 22.9245 17.3119 22.9806 17.2125 23.0163C17.1131 23.052 17.0073 23.0664 16.9019 23.0587C16.7936 23.0499 16.6884 23.0175 16.5938 22.9638C16.4992 22.9101 16.4175 22.8365 16.3543 22.7479L12.4915 17.3311L8.61395 22.7479C8.54992 22.8459 8.46193 22.9259 8.35833 22.9803C8.25472 23.0347 8.13893 23.0617 8.02194 23.0587H7.90354C7.76792 23.038 7.64073 22.9799 7.53619 22.8911C7.43165 22.8022 7.35387 22.6861 7.31154 22.5555L0.163145 1.09554C0.120992 0.965761 0.115546 0.826848 0.147409 0.694162C0.179272 0.561476 0.247204 0.440185 0.343694 0.343694C0.440185 0.247204 0.561476 0.179272 0.694162 0.147409C0.826848 0.115546 0.96576 0.120992 1.09554 0.163145L22.5555 7.31155C22.6863 7.3531 22.8028 7.43054 22.8917 7.53505C22.9806 7.63956 23.0383 7.76694 23.0584 7.90267C23.0784 8.03841 23.06 8.17704 23.0051 8.30279C22.9502 8.42854 22.8611 8.53636 22.7479 8.61395L17.3311 12.4915L22.7479 16.3543Z" />
</svg>
