<svg width="32" height="32" viewBox="0 0 32 32" fill="none" xmlns="http://www.w3.org/2000/svg">
<path d="M10.9182 10.2486C11.1519 10.3351 11.4048 10.3556 11.6493 10.308C11.8256 10.9038 12.0565 11.482 12.3392 12.0353C12.386 12.1452 12.4945 12.236 12.4858 12.3633C12.4833 13.0148 12.4809 13.6667 12.4865 14.3182C12.4676 14.4323 12.5891 14.4791 12.6592 14.5412C12.9171 14.7621 13.1752 14.9827 13.4336 15.2029C14.3014 15.9325 15.1501 16.6846 16.0218 17.4094C16.4224 17.0478 16.8398 16.7045 17.246 16.3489C18.0224 15.6939 18.7863 15.0246 19.562 14.3692C19.5558 13.6699 19.5495 12.9702 19.5596 12.2712C19.9025 11.6476 20.1802 10.9903 20.3884 10.3097C20.5716 10.3327 20.757 10.3321 20.9401 10.308C21.0618 10.2694 21.1743 10.2066 21.271 10.1233C21.3677 10.04 21.4465 9.93791 21.5026 9.82328C21.7556 9.38792 21.8808 8.89016 21.8642 8.38694C21.8649 8.26589 21.8409 8.14595 21.7936 8.03451C21.7464 7.92307 21.6768 7.82249 21.5892 7.73894C21.4281 7.6277 21.2305 7.58238 21.0371 7.61227C21.3793 6.89947 21.5988 6.134 21.6862 5.34814C21.7323 4.63 21.5731 3.91356 21.2269 3.28264C21.0444 2.91844 20.728 2.63897 20.3441 2.5027C19.9402 2.41838 19.5194 2.48334 19.1597 2.68556C19.1043 2.50547 19.0392 2.32852 18.9646 2.15549C18.7572 1.58135 18.403 1.07157 17.9373 0.676932C17.4723 0.345087 16.9044 0.189474 16.3352 0.237922C15.4786 0.290671 14.6386 0.498412 13.8561 0.851052C12.7733 1.33341 11.8326 2.08586 11.1241 3.03626C10.645 3.65115 10.3661 4.39833 10.3253 5.1768C10.363 6.03245 10.6037 6.86687 11.0275 7.61116C10.9234 7.59301 10.8168 7.59605 10.7139 7.62009C10.6111 7.64414 10.5142 7.6887 10.429 7.7511C10.2723 7.91261 10.1842 8.12842 10.183 8.35341C10.1593 8.83521 10.264 9.31465 10.4866 9.74263C10.5825 9.94691 10.7316 10.1217 10.9182 10.2486Z" fill="#F2AF29"/>
<path d="M28.1381 18.4531C26.1131 17.8257 24.0839 17.2084 22.0613 16.5715C21.9821 16.5408 21.8781 16.5471 21.8299 16.4655C21.252 15.7072 20.6786 14.9459 20.1095 14.1818C20.1217 14.4481 20.0848 14.714 20.0837 14.9806C20.0286 16.0052 19.9755 17.0297 19.9162 18.0539C19.8796 18.8527 19.8157 19.6504 19.8 20.4503C19.6304 20.2985 19.4559 20.1524 19.2766 20.012C18.6599 21.635 18.0674 23.2667 17.4546 24.8912C17.322 25.244 17.1974 25.6006 17.0502 25.9471C17.0017 25.5158 16.9968 25.081 16.9626 24.6486C16.8701 23.1139 16.7731 21.5791 16.6921 20.0437C17.0373 19.6037 17.3778 19.1605 17.7289 18.725C17.1594 18.3268 16.5892 17.9286 16.0148 17.5375C15.432 17.9171 14.8747 18.3352 14.2965 18.7225C14.643 19.1608 14.9871 19.6016 15.3228 20.0475C15.3269 20.1853 15.3224 20.3231 15.3095 20.4604C15.2537 21.4378 15.185 22.4142 15.1316 23.3916C15.0838 24.2431 15.0154 25.0935 14.9766 25.9454L14.9278 25.8696C14.5003 24.6779 14.0435 23.4963 13.6108 22.3064C13.3267 21.538 13.0298 20.7741 12.7544 20.0022C12.5817 20.1508 12.3995 20.2894 12.2355 20.4482C12.2331 19.9401 12.1849 19.4337 12.164 18.9263C12.0938 17.6233 12.0249 16.3202 11.957 15.0169C11.9588 14.736 11.9054 14.4568 11.9249 14.1759C11.3676 14.9297 10.7884 15.6677 10.2391 16.4278C10.2038 16.4693 10.178 16.5286 10.1201 16.5419C8.67748 16.9847 7.23568 17.43 5.79469 17.8777C5.15783 18.0693 4.52586 18.2773 3.88586 18.458C3.54423 19.9237 3.22597 21.3949 2.88086 22.8595C3.84079 25.347 5.50251 27.5021 7.66409 29.063C9.3191 30.2683 11.2176 31.0973 13.2266 31.4918C15.7574 31.9961 18.3778 31.8005 20.8057 30.9262C23.2336 30.0519 25.3771 28.5319 27.0054 26.5299C27.8925 25.4265 28.6057 24.1939 29.1201 22.8749C28.8071 21.3977 28.4627 19.9275 28.1381 18.4531Z" fill="#F2AF29"/>
</svg>
