<svg width="34" height="34" viewBox="0 0 34 34" fill="none" xmlns="http://www.w3.org/2000/svg">
<path d="M24.9235 15.2716C24.8616 13.8395 24.6195 12.4177 24.1456 11.0628C21.915 4.66466 16.5059 1.53254 15.5889 1.04314C15.5271 1.00708 15.455 1.05345 15.455 1.12557V4.94284C15.455 4.99436 15.4086 5.02527 15.3571 5.01496C15.0068 4.94284 14.6719 4.91708 14.3526 4.92224C12.9719 4.95314 11.6841 5.6692 10.8753 6.78193C9.31952 8.93011 6.5377 10.9341 6.21831 11.1607C6.21316 11.1813 6.20801 11.1968 6.20801 11.2174L7.96467 14.6277C7.99043 14.6328 8.00074 14.6328 8.03164 14.638C9.3968 13.1647 14.1826 13.005 15.3571 12.9895C15.4189 12.9844 15.4395 13.0616 15.388 13.0977C14.2186 13.8395 12.5598 17.3838 11.5759 19.7019C11.0244 20.9968 10.7405 22.3899 10.7413 23.7974C10.7413 23.8128 10.7413 23.8231 10.7362 23.8386H24.2898C24.3465 23.4059 24.465 23.1277 24.465 23.1277C25.078 21.3556 25.0162 17.461 24.9235 15.2716ZM13.6519 9.15678C13.4586 9.1496 13.2756 9.06776 13.1414 8.92846C13.0072 8.78916 12.9322 8.60325 12.9322 8.40981C12.9322 8.21637 13.0072 8.03046 13.1414 7.89116C13.2756 7.75186 13.4586 7.67002 13.6519 7.66284C14.0589 7.66284 14.3938 7.99769 14.3938 8.40981C14.3938 8.82193 14.0589 9.15678 13.6519 9.15678ZM22.5692 20.7477L21.5647 20.5313C23.2853 12.4744 18.9632 8.60557 18.9168 8.56951L19.5916 7.79163C19.7926 7.96163 24.4135 12.0983 22.5692 20.7477ZM26.268 27.0995V29.088H8.2068V27.0995C8.79407 26.9862 9.31952 26.6668 9.68528 26.1928C9.96861 25.8168 10.2726 25.3531 10.4838 24.8689H24.3104C24.3826 25.2553 24.5319 25.6828 24.8153 26.1104C25.1501 26.6101 25.6756 26.9604 26.268 27.0995ZM6.67628 30.1183H27.7929V32.9691H6.67628V30.1183Z" fill="#F2AF29"/>
</svg>
