<svg width="32" height="32" viewBox="0 0 32 32" fill="none" xmlns="http://www.w3.org/2000/svg">
<g clip-path="url(#clip0_507_4834)">
<path d="M1.33301 28H6.66634V12H1.33301V28ZM30.6663 13.3334C30.6663 11.86 29.473 10.6667 27.9997 10.6667H19.5797L20.853 4.57337C20.8797 4.44004 20.8997 4.30004 20.8997 4.15337C20.8997 3.60004 20.673 3.10004 20.313 2.74004L18.893 1.33337L10.113 10.1134C9.63301 10.6 9.33301 11.2667 9.33301 12V25.3334C9.33301 26.8067 10.5263 28 11.9997 28H23.9997C25.1063 28 26.053 27.3267 26.453 26.3734L30.473 16.9734C30.5978 16.6639 30.6634 16.3337 30.6663 16V13.4467L30.653 13.4334L30.6663 13.3334Z" fill="#F2AF29"/>
</g>
<defs>
<clipPath id="clip0_507_4834">
<rect width="32" height="32" fill="white"/>
</clipPath>
</defs>
</svg>
